<?xml version="1.0" encoding="UTF-8"?> <svg xmlns="http://www.w3.org/2000/svg" width="160" height="40" viewBox="0 0 160 40" fill="none"><g clip-path="url(#clip0_51_19888)"><path d="M156.175 17.2273C156.175 16.1474 155.231 15.5066 152.92 15.5066H142.581V25.9469H152.92C155.237 25.9469 156.175 25.3212 156.175 24.2716V17.2273ZM159.49 17.2273V24.2716C159.49 27.2235 157.189 28.6263 152.925 28.6263H139.276V12.8271H152.925C157.194 12.8271 159.49 14.2501 159.49 17.2273ZM154.369 34.833V36.7555H155.928C157.073 36.7555 157.603 36.5082 157.603 35.822C157.603 35.06 157.088 34.833 155.983 34.833H154.364H154.369ZM154.369 37.3964V39.6368H153.526V34.2022H156.261C157.724 34.2022 158.441 34.7119 158.441 35.8068C158.441 36.9018 157.704 37.4014 156.241 37.4014H154.364L154.369 37.3964ZM52.8069 35.9128C52.5848 35.1963 51.8683 34.7825 50.7885 34.7825C49.4058 34.7825 48.5833 35.5899 48.5833 36.917C48.5833 38.2441 49.4159 39.0515 50.7632 39.0515C51.9894 39.0515 52.8321 38.4157 52.9381 37.4367H51.0609V36.7252H53.7253V39.6368H53.1349L53.0541 38.7235C52.5949 39.4148 51.8027 39.7781 50.7582 39.7781C48.9113 39.7781 47.7104 38.6326 47.7104 36.917C47.7104 35.2013 48.8962 34.0559 50.8541 34.0559C52.3981 34.0559 53.5486 34.8481 53.6647 35.9128H52.8069ZM74.6411 39.6318V34.1972H77.7646C79.1472 34.1972 79.8739 34.7219 79.8739 35.6807C79.8739 36.3821 79.5206 36.8211 78.8546 37.0129C79.5005 37.1239 79.7225 37.3509 79.7881 38.3147C79.8385 39.0313 79.8789 39.4753 80.0555 39.6318H79.0766C79.0009 39.4753 78.9706 39.1827 78.9302 38.6074C78.8546 37.5427 78.6679 37.2954 77.7041 37.2954H75.4888V39.6318H74.6462H74.6411ZM75.4838 34.833V36.6596H77.4265C78.5114 36.6596 79.0261 36.4426 79.0261 35.7362C79.0261 35.0298 78.4963 34.8279 77.3508 34.8279H75.4788L75.4838 34.833ZM100.331 36.917C100.331 35.1862 101.557 34.0559 103.58 34.0559C105.604 34.0559 106.825 35.1862 106.825 36.917C106.825 38.6478 105.599 39.7781 103.575 39.7781C101.552 39.7781 100.331 38.6478 100.331 36.917ZM101.203 36.917C101.203 38.2491 102.071 39.0515 103.58 39.0515C105.089 39.0515 105.952 38.2441 105.952 36.917C105.952 35.5899 105.084 34.7825 103.575 34.7825C102.066 34.7825 101.203 35.5848 101.203 36.917ZM127.392 34.1972H128.235V37.2803C128.235 38.4712 128.775 39.0616 130.006 39.0616C131.238 39.0616 131.798 38.4712 131.798 37.2803V34.1972H132.64V37.6032C132.64 39.0161 131.732 39.773 130.016 39.773C128.301 39.773 127.392 39.0161 127.392 37.6032V34.1972ZM47.3016 28.6263V12.8271H63.5398V15.5066H50.6169V19.604H62.8334L61.1177 22.2784H50.6169V28.6263H47.3016ZM69.3327 28.6263H66.0174V12.8271H69.3327V28.6263ZM72.1635 28.6263V12.8271H74.7319L89.7893 24.428V12.8271H92.9482V28.6263H90.3848L75.3274 17.1112V28.6263H72.1686H72.1635ZM113.38 15.5016H100.674C98.8874 15.5016 98.297 15.547 98.297 16.3543V18.3425C98.297 19.2054 98.8924 19.0893 100.674 19.1902H109.055C112.724 19.1902 114.747 19.6696 114.747 22.7174V25.1496C114.747 27.8846 112.724 28.6314 109.055 28.6314H95.0271L96.7579 25.957H109.257C111.048 25.957 111.634 26.0024 111.634 25.1496V22.7174C111.603 21.8394 111.043 21.8697 109.257 21.8697H100.875C97.207 21.8697 95.1836 21.3348 95.1836 18.3425V16.3543C95.1836 13.3418 97.207 12.8271 100.875 12.8271H115.161L113.38 15.5016ZM131.878 24.5542L122.71 24.5643L124.658 21.8898H130.163L126.53 16.2231L118.436 28.6213H114.848L125.354 12.8322H127.685L138.12 28.6263H134.487L131.873 24.5542H131.878Z" fill="#0069B4"></path><path d="M19.9975 2.83083C10.5361 2.83083 2.86615 10.4857 2.83083 19.942L0.0605525 21.5567C0.0201842 21.042 0 20.5223 0 19.9975C0 8.95168 8.95168 0 19.9975 0C25.6188 0 30.6951 2.31613 34.3282 6.05021L33.9649 7.05437L33.2333 9.0627L31.7346 13.1752H15.8648L13.8968 18.5846H30.14L26.1082 29.6556H9.87006L8.68424 32.9103C11.7068 35.5595 15.6629 37.1641 19.9975 37.1641C29.479 37.1641 37.1641 29.479 37.1641 19.9975L39.7225 18.3676H39.9344C39.9798 18.9025 40 19.4475 40 19.9975C40 31.0433 31.0483 39.995 20.0025 39.995C14.3661 39.995 9.26958 37.6637 5.63643 33.9094L5.9947 32.9305L6.73647 30.8919L8.22001 26.8197H24.1403L26.1082 21.4104H9.85493L13.8867 10.3393H30.1299L31.3158 7.08465C28.2932 4.43547 24.3371 2.83083 20.0025 2.83083H19.9975Z" fill="#0069B4"></path></g><defs><clipPath id="clip0_51_19888"><rect width="159.49" height="40" fill="white"></rect></clipPath></defs></svg> 